<svg width="43" height="36" viewBox="0 0 43 36" fill="none" xmlns="http://www.w3.org/2000/svg">
<path d="M8.51172 18.1882C9.27111 18.1882 9.88672 18.8038 9.88672 19.5632V32.7722C9.8867 33.5316 9.2711 34.1472 8.51172 34.1472H5.8877C4.56456 34.1468 3.29168 33.6319 2.35059 32.7107C1.40905 31.7889 0.875995 30.535 0.875977 29.2234V19.5632C0.875977 18.804 1.4918 18.1885 2.25098 18.1882H8.51172ZM34.2637 9.27319C34.5776 9.27319 34.8811 9.38021 35.124 9.57495L35.2246 9.66382L41.4824 15.7703C42.3643 16.6315 41.7544 18.1287 40.5215 18.1287H18.9951V32.7722C18.9951 33.5316 18.3795 34.1472 17.6201 34.1472H11.3594C10.6001 34.1471 9.98438 33.5315 9.98438 32.7722V18.1287H2.25C1.49061 18.1287 0.875 17.5131 0.875 16.7537V14.197C0.875 12.8851 1.40774 11.6306 2.34961 10.7087C3.29105 9.78757 4.56433 9.27324 5.8877 9.27319H34.2637ZM26.7266 18.1853C27.4858 18.1855 28.1016 18.801 28.1016 19.5603V25.2898L40.5215 25.2908C41.7546 25.2909 42.3641 26.789 41.4814 27.6501L35.2246 33.7546C34.9678 34.0052 34.6225 34.1462 34.2637 34.1462H23.9531C23.3172 34.1464 22.6871 34.0233 22.0986 33.7849C21.5101 33.5464 20.9738 33.1962 20.5215 32.7537C20.0691 32.311 19.7087 31.7839 19.4629 31.2029C19.2171 30.622 19.0907 29.9987 19.0908 29.3689V19.5603C19.0908 18.8009 19.7064 18.1853 20.4658 18.1853H26.7266ZM9.9834 2.25366C9.98371 1.20056 11.1035 0.564285 11.9922 1.03296L12.167 1.14233L18.4287 5.69604C18.7845 5.95478 18.9951 6.36845 18.9951 6.80835V7.84155C18.9951 8.60095 18.3795 9.21655 17.6201 9.21655H11.3584C10.599 9.21655 9.9834 8.60095 9.9834 7.84155V2.25366Z" stroke="#242A2C" stroke-width="1.75"/>
</svg>
